<svg width="40" height="44" viewBox="0 0 40 44" fill="none" xmlns="http://www.w3.org/2000/svg">
<path d="M16.4284 6.82138C16.4281 7.61056 16.6891 8.37764 17.1708 9.00277C17.6525 9.6279 18.3277 10.0759 19.0909 10.2767C19.6927 10.3714 20.3052 10.3714 20.9088 10.2767C21.554 10.1069 22.1388 9.75978 22.5968 9.27462C23.0548 8.78946 23.3678 8.1857 23.5002 7.53176C23.6326 6.87783 23.5792 6.19988 23.346 5.57474C23.1129 4.94961 22.7092 4.40229 22.1809 3.99483C21.6526 3.58736 21.0207 3.33605 20.3568 3.26936C19.6929 3.20267 19.0236 3.32328 18.4248 3.61752C17.826 3.91176 17.3216 4.36785 16.9687 4.93412C16.6159 5.50038 16.4287 6.15417 16.4284 6.82138ZM14.0409 8.71066C13.7452 7.77429 13.6742 6.78141 13.8338 5.81251C13.9934 4.8436 14.3791 3.92594 14.9595 3.1339C15.54 2.34186 16.2989 1.69774 17.1748 1.25374C18.0506 0.809745 19.0188 0.578369 20.0007 0.578369C20.9827 0.578369 21.9508 0.809745 22.8267 1.25374C23.7025 1.69774 24.4614 2.34186 25.0419 3.1339C25.6223 3.92594 26.008 4.8436 26.1676 5.81251C26.3272 6.78141 26.2563 7.77429 25.9605 8.71066L33.8516 6.14638C34.4041 5.96698 34.9865 5.89816 35.5656 5.94385C36.1447 5.98954 36.7091 6.14884 37.2266 6.41266C37.7441 6.67648 38.2046 7.03965 38.5818 7.48143C38.959 7.92321 39.2454 8.43496 39.4248 8.98745C39.6042 9.53994 39.673 10.1224 39.6273 10.7014C39.5817 11.2805 39.4224 11.8449 39.1585 12.3625C38.8947 12.88 38.5316 13.3405 38.0898 13.7176C37.648 14.0948 37.1362 14.3813 36.5838 14.5607L27.1427 17.6285V24.4535C27.1427 24.7392 27.1963 25.0249 27.3052 25.2892L32.1766 37.3464C32.6161 38.4342 32.6055 39.6521 32.147 40.7321C31.6885 41.8121 30.8198 42.6658 29.732 43.1053C28.6441 43.5448 27.4262 43.5342 26.3462 43.0757C25.2662 42.6172 24.4125 41.7485 23.973 40.6607L19.9677 30.7446L15.982 40.6732C15.7668 41.2104 15.4475 41.6998 15.0424 42.1131C14.6374 42.5264 14.1546 42.8556 13.6218 43.0817C13.0891 43.3077 12.5169 43.4262 11.9382 43.4302C11.3595 43.4343 10.7857 43.3239 10.2498 43.1053C9.16785 42.6641 8.3044 41.8127 7.84804 40.7371C7.39168 39.6614 7.37948 38.4489 7.81411 37.3642L12.6963 25.1999C12.8034 24.9357 12.857 24.6535 12.857 24.3678V17.6285L3.41411 14.5607C2.2983 14.1981 1.37222 13.4072 0.839584 12.3618C0.306947 11.3165 0.211388 10.1024 0.57393 8.98656C0.936471 7.87075 1.72741 6.94467 2.77276 6.41203C3.81811 5.87939 5.03223 5.78384 6.14804 6.14638L14.0409 8.71066ZM18.5373 12.8999C18.1447 12.8309 17.7574 12.7342 17.3784 12.6107L5.32125 8.69281C4.88104 8.54978 4.40204 8.58748 3.98963 8.79762C3.57721 9.00776 3.26517 9.37313 3.12214 9.81334C2.97912 10.2536 3.01682 10.7326 3.22696 11.145C3.4371 11.5574 3.80247 11.8694 4.24268 12.0124L13.9927 15.1803C14.9123 15.4803 15.5355 16.3374 15.5355 17.3035V24.3696C15.5355 24.9946 15.4159 25.616 15.182 26.1982L10.2998 38.3607C10.129 38.7882 10.1341 39.266 10.3141 39.6898C10.494 40.1136 10.8343 40.4491 11.2605 40.6232C11.4695 40.7086 11.6933 40.7518 11.919 40.7503C12.1448 40.7489 12.368 40.7027 12.5758 40.6146C12.7837 40.5264 12.972 40.398 13.13 40.2368C13.2879 40.0755 13.4124 39.8846 13.4963 39.6749L17.8945 28.7178C18.6445 26.8517 21.282 26.8482 22.0355 28.7125L26.457 39.6571C26.6303 40.0862 26.967 40.4288 27.393 40.6097C27.8189 40.7905 28.2993 40.7947 28.7284 40.6214C29.1575 40.448 29.5001 40.1113 29.681 39.6854C29.8618 39.2594 29.866 38.779 29.6927 38.3499L24.8213 26.2928C24.5853 25.7083 24.464 25.0839 24.4641 24.4535V17.3035C24.4641 16.3374 25.0873 15.4803 26.007 15.1803L35.757 12.0124C35.9749 11.9416 36.1768 11.8286 36.3511 11.6797C36.5254 11.5309 36.6686 11.3492 36.7727 11.145C36.8767 10.9408 36.9395 10.7181 36.9575 10.4896C36.9755 10.2611 36.9483 10.0313 36.8775 9.81334C36.8067 9.59537 36.6936 9.39348 36.5448 9.2192C36.3959 9.04493 36.2142 8.90167 36.01 8.79762C35.8058 8.69357 35.5831 8.63076 35.3546 8.61278C35.1261 8.59479 34.8964 8.62198 34.6784 8.69281L22.6213 12.6107C22.2409 12.7357 21.8534 12.8303 21.4623 12.8999C20.5004 13.1309 19.4992 13.1309 18.5373 12.8999Z" fill="black"/>
</svg>
