<svg width="38" height="50" viewBox="0 0 38 50" fill="none" xmlns="http://www.w3.org/2000/svg">
<path d="M37.5 17.1875C37.5 18.1315 37.3454 19.0267 37.0361 19.873C36.7269 20.7194 36.2793 21.4844 35.6934 22.168C35.1074 22.8516 34.432 23.4294 33.667 23.9014C32.902 24.3734 32.0475 24.6908 31.1035 24.8535C30.9245 25.7812 30.6071 26.6357 30.1514 27.417C29.6956 28.1982 29.1178 28.8737 28.418 29.4434C27.7181 30.013 26.9531 30.4525 26.123 30.7617C25.293 31.071 24.3978 31.2337 23.4375 31.25H14.0625C13.5417 31.25 13.0452 31.3314 12.5732 31.4941C12.1012 31.6569 11.6699 31.8848 11.2793 32.1777C10.8887 32.4707 10.5469 32.8206 10.2539 33.2275C9.96094 33.6344 9.74121 34.0902 9.59473 34.5947C10.4736 34.8063 11.2793 35.1481 12.0117 35.6201C12.7441 36.0921 13.3789 36.6699 13.916 37.3535C14.4531 38.0371 14.8682 38.7858 15.1611 39.5996C15.4541 40.4134 15.6087 41.276 15.625 42.1875C15.625 43.2617 15.4215 44.2708 15.0146 45.2148C14.6077 46.1589 14.0462 46.9889 13.3301 47.7051C12.6139 48.4212 11.7839 48.9827 10.8398 49.3896C9.89583 49.7966 8.88672 50 7.8125 50C6.73828 50 5.72917 49.7966 4.78516 49.3896C3.84115 48.9827 3.01107 48.4294 2.29492 47.7295C1.57878 47.0296 1.01725 46.1995 0.610352 45.2393C0.203451 44.279 0 43.2617 0 42.1875C0 41.2598 0.154622 40.3727 0.463867 39.5264C0.773112 38.68 1.20443 37.9232 1.75781 37.2559C2.3112 36.5885 2.97038 36.0107 3.73535 35.5225C4.50033 35.0342 5.33854 34.7087 6.25 34.5459V15.4541C5.33854 15.2751 4.50033 14.9495 3.73535 14.4775C2.97038 14.0055 2.3112 13.4359 1.75781 12.7686C1.20443 12.1012 0.773112 11.3363 0.463867 10.4736C0.154622 9.611 0 8.72396 0 7.8125C0 6.73828 0.203451 5.72917 0.610352 4.78516C1.01725 3.84115 1.57064 3.01921 2.27051 2.31934C2.97038 1.61947 3.80046 1.05794 4.76074 0.634766C5.72103 0.211589 6.73828 0 7.8125 0C8.88672 0 9.89583 0.203451 10.8398 0.610352C11.7839 1.01725 12.6058 1.57878 13.3057 2.29492C14.0055 3.01107 14.5671 3.84115 14.9902 4.78516C15.4134 5.72917 15.625 6.73828 15.625 7.8125C15.625 8.74023 15.4704 9.62728 15.1611 10.4736C14.8519 11.32 14.4206 12.0768 13.8672 12.7441C13.3138 13.4115 12.6546 13.9893 11.8896 14.4775C11.1247 14.9658 10.2865 15.2913 9.375 15.4541V29.7363C10.0586 29.2155 10.7992 28.8167 11.5967 28.54C12.3942 28.2633 13.2161 28.125 14.0625 28.125H23.4375C23.9583 28.125 24.4548 28.0436 24.9268 27.8809C25.3988 27.7181 25.8301 27.4902 26.2207 27.1973C26.6113 26.9043 26.9531 26.5544 27.2461 26.1475C27.5391 25.7406 27.7588 25.2848 27.9053 24.7803C27.0264 24.5687 26.2207 24.2269 25.4883 23.7549C24.7559 23.2829 24.1211 22.7132 23.584 22.0459C23.0469 21.3786 22.6318 20.6299 22.3389 19.7998C22.0459 18.9697 21.8913 18.099 21.875 17.1875C21.875 16.1133 22.0785 15.1042 22.4854 14.1602C22.8923 13.2161 23.4456 12.3942 24.1455 11.6943C24.8454 10.9945 25.6755 10.4329 26.6357 10.0098C27.596 9.58659 28.6133 9.375 29.6875 9.375C30.7617 9.375 31.7708 9.57845 32.7148 9.98535C33.6589 10.3923 34.4808 10.9538 35.1807 11.6699C35.8805 12.3861 36.4421 13.2161 36.8652 14.1602C37.2884 15.1042 37.5 16.1133 37.5 17.1875ZM3.125 7.8125C3.125 8.46354 3.24707 9.07389 3.49121 9.64355C3.73535 10.2132 4.06901 10.7096 4.49219 11.1328C4.91536 11.556 5.41178 11.8896 5.98145 12.1338C6.55111 12.3779 7.16146 12.5 7.8125 12.5C8.46354 12.5 9.07389 12.3779 9.64355 12.1338C10.2132 11.8896 10.7096 11.556 11.1328 11.1328C11.556 10.7096 11.8896 10.2132 12.1338 9.64355C12.3779 9.07389 12.5 8.46354 12.5 7.8125C12.5 7.16146 12.3779 6.55111 12.1338 5.98145C11.8896 5.41178 11.556 4.91536 11.1328 4.49219C10.7096 4.06901 10.2132 3.73535 9.64355 3.49121C9.07389 3.24707 8.46354 3.125 7.8125 3.125C7.16146 3.125 6.55111 3.24707 5.98145 3.49121C5.41178 3.73535 4.91536 4.06901 4.49219 4.49219C4.06901 4.91536 3.73535 5.41178 3.49121 5.98145C3.24707 6.55111 3.125 7.16146 3.125 7.8125ZM12.5 42.1875C12.5 41.5365 12.3779 40.9261 12.1338 40.3564C11.8896 39.7868 11.556 39.2904 11.1328 38.8672C10.7096 38.444 10.2132 38.1104 9.64355 37.8662C9.07389 37.6221 8.46354 37.5 7.8125 37.5C7.16146 37.5 6.55111 37.6221 5.98145 37.8662C5.41178 38.1104 4.91536 38.444 4.49219 38.8672C4.06901 39.2904 3.73535 39.7868 3.49121 40.3564C3.24707 40.9261 3.125 41.5365 3.125 42.1875C3.125 42.8385 3.24707 43.4489 3.49121 44.0186C3.73535 44.5882 4.06901 45.0846 4.49219 45.5078C4.91536 45.931 5.41178 46.2646 5.98145 46.5088C6.55111 46.7529 7.16146 46.875 7.8125 46.875C8.46354 46.875 9.07389 46.7529 9.64355 46.5088C10.2132 46.2646 10.7096 45.931 11.1328 45.5078C11.556 45.0846 11.8896 44.5882 12.1338 44.0186C12.3779 43.4489 12.5 42.8385 12.5 42.1875ZM29.6875 21.875C30.3385 21.875 30.9489 21.7529 31.5186 21.5088C32.0882 21.2646 32.5846 20.931 33.0078 20.5078C33.431 20.0846 33.7646 19.5882 34.0088 19.0186C34.2529 18.4489 34.375 17.8385 34.375 17.1875C34.375 16.5365 34.2529 15.9261 34.0088 15.3564C33.7646 14.7868 33.431 14.2904 33.0078 13.8672C32.5846 13.444 32.0882 13.1104 31.5186 12.8662C30.9489 12.6221 30.3385 12.5 29.6875 12.5C29.0365 12.5 28.4261 12.6221 27.8564 12.8662C27.2868 13.1104 26.7904 13.444 26.3672 13.8672C25.944 14.2904 25.6104 14.7868 25.3662 15.3564C25.1221 15.9261 25 16.5365 25 17.1875C25 17.8385 25.1221 18.4489 25.3662 19.0186C25.6104 19.5882 25.944 20.0846 26.3672 20.5078C26.7904 20.931 27.2868 21.2646 27.8564 21.5088C28.4261 21.7529 29.0365 21.875 29.6875 21.875Z" fill="black"/>
</svg>
