<?xml version="1.0" standalone="no"?>
<!DOCTYPE svg PUBLIC "-//W3C//DTD SVG 20010904//EN"
 "http://www.w3.org/TR/2001/REC-SVG-20010904/DTD/svg10.dtd">
<svg version="1.0" xmlns="http://www.w3.org/2000/svg"
 width="400.000000pt" height="481.000000pt" viewBox="0 0 400.000000 481.000000"
 preserveAspectRatio="xMidYMid meet">
<metadata>
Created by potrace 1.16, written by Peter Selinger 2001-2019
</metadata>
<g transform="translate(0.000000,481.000000) scale(0.100000,-0.100000)"
fill="#000000" stroke="none">
<path d="M787 4768 c-38 -91 -59 -205 -64 -344 -6 -157 4 -237 43 -352 l25
-73 -64 -69 c-176 -190 -247 -477 -247 -996 0 -292 29 -446 118 -629 181 -370
572 -625 1066 -697 l86 -12 -20 -21 c-27 -29 -84 -158 -104 -235 -10 -36 -20
-99 -23 -141 l-6 -77 -76 -23 c-66 -21 -97 -24 -226 -24 -139 0 -157 2 -239
29 -159 52 -313 179 -405 333 -96 161 -204 257 -343 304 -83 28 -258 33 -284
8 -25 -26 -9 -56 59 -104 34 -24 75 -56 90 -72 81 -81 232 -311 304 -463 49
-104 105 -184 181 -258 218 -216 518 -291 905 -226 l37 7 0 -317 0 -316 640 0
640 0 0 609 0 608 -24 94 c-30 118 -60 197 -92 244 -14 21 -24 38 -22 40 2 1
39 8 83 15 564 88 969 393 1115 839 53 164 63 260 57 564 -10 509 -73 738
-254 928 l-55 58 20 54 c72 192 71 458 -1 677 -21 63 -23 65 -58 68 -48 4
-155 -37 -249 -95 -87 -54 -244 -207 -314 -305 l-47 -67 -42 29 c-53 37 -167
75 -293 97 -145 26 -783 26 -928 0 -126 -22 -239 -60 -293 -97 l-41 -28 -53
71 c-152 208 -382 375 -540 394 -47 6 -48 5 -62 -29z"/>
</g>
</svg>
