<svg width="34" height="28" viewBox="0 0 34 28" fill="none" xmlns="http://www.w3.org/2000/svg">
<path d="M30.3335 0.666748H3.66683C1.8335 0.666748 0.350163 2.16675 0.350163 4.00008L0.333496 24.0001C0.333496 25.8334 1.8335 27.3334 3.66683 27.3334H30.3335C32.1668 27.3334 33.6668 25.8334 33.6668 24.0001V4.00008C33.6668 2.16675 32.1668 0.666748 30.3335 0.666748ZM29.6668 7.75008L17.8835 15.1167C17.3502 15.4501 16.6502 15.4501 16.1168 15.1167L4.3335 7.75008C4.16638 7.65627 4.02003 7.52952 3.90331 7.3775C3.78659 7.22549 3.70193 7.05138 3.65445 6.8657C3.60698 6.68002 3.59767 6.48664 3.62709 6.29726C3.65651 6.10788 3.72406 5.92644 3.82563 5.76392C3.92721 5.6014 4.0607 5.46117 4.21804 5.35174C4.37538 5.24231 4.55328 5.16593 4.74099 5.12725C4.9287 5.08856 5.1223 5.08836 5.31009 5.12666C5.49787 5.16496 5.67594 5.24097 5.8335 5.35008L17.0002 12.3334L28.1668 5.35008C28.3244 5.24097 28.5025 5.16496 28.6902 5.12666C28.878 5.08836 29.0716 5.08856 29.2593 5.12725C29.447 5.16593 29.6249 5.24231 29.7823 5.35174C29.9396 5.46117 30.0731 5.6014 30.1747 5.76392C30.2763 5.92644 30.3438 6.10788 30.3732 6.29726C30.4027 6.48664 30.3933 6.68002 30.3459 6.8657C30.2984 7.05138 30.2137 7.22549 30.097 7.3775C29.9803 7.52952 29.834 7.65627 29.6668 7.75008Z" fill="white"/>
</svg>
