<svg width="21" height="42" viewBox="0 0 21 42" fill="none" xmlns="http://www.w3.org/2000/svg">
<path d="M8.76058 40.5833C8.4828 41.0694 8.09252 41.234 7.58975 41.077C7.08558 40.9215 6.8335 40.5833 6.8335 40.0625V25.1666H2.66683C2.07655 25.1666 1.58141 24.9666 1.18141 24.5666C0.782802 24.168 0.583496 23.6736 0.583496 23.0833V2.24996C0.583496 1.65968 0.782802 1.16454 1.18141 0.764543C1.58141 0.365931 2.07655 0.166626 2.66683 0.166626H18.1877C18.9516 0.166626 19.5418 0.479126 19.9585 1.10413C20.3752 1.72913 20.4272 2.38885 20.1147 3.08329L13.0835 18.9166H17.771C18.5696 18.9166 19.1772 19.2638 19.5939 19.9583C20.0106 20.6527 20.0106 21.3472 19.5939 22.0416L8.76058 40.5833Z" fill="black"/>
</svg>
