<svg width="37" height="37" viewBox="0 0 37 37" fill="none" xmlns="http://www.w3.org/2000/svg">
<path d="M33.375 36.2916L21.6042 24.5208L24.5208 21.6041L36.2917 33.375C36.6736 33.7569 36.8646 34.243 36.8646 34.8333C36.8646 35.4236 36.6736 35.9097 36.2917 36.2916C35.9097 36.6736 35.4236 36.8645 34.8333 36.8645C34.2431 36.8645 33.7569 36.6736 33.375 36.2916ZM3.42708 32.5416C2.35069 30.8055 1.55208 28.9909 1.03125 27.0979C0.510417 25.2062 0.25 23.2708 0.25 21.2916C0.25 18.5833 0.753472 15.9444 1.76042 13.375C2.76736 10.8055 4.3125 8.47913 6.39583 6.39579C8.47917 4.31246 10.8139 2.75829 13.4 1.73329C15.9875 0.709682 18.6354 0.197876 21.3438 0.197876C23.3229 0.197876 25.259 0.466626 27.1521 1.00413C29.0438 1.54302 30.8403 2.35065 32.5417 3.42704C33.6181 4.12149 34.191 5.11107 34.2604 6.39579C34.3299 7.68051 33.8785 8.80899 32.9062 9.78121L9.78125 32.9062C8.80903 33.8784 7.67222 34.3298 6.37083 34.2604C5.06806 34.1909 4.08681 33.618 3.42708 32.5416ZM6.8125 29.9375L9.625 27.125C9.06944 26.3958 8.54028 25.6493 8.0375 24.8854C7.53333 24.1215 7.07292 23.3576 6.65625 22.5937C6.23958 21.8298 5.875 21.0659 5.5625 20.302C5.25 19.5382 4.97222 18.7916 4.72917 18.0625C4.34722 20.1111 4.32153 22.1597 4.65208 24.2083C4.98125 26.2569 5.70139 28.1666 6.8125 29.9375ZM12.6458 24.2083L24.2083 12.5416C22.7153 11.3958 21.2139 10.4666 19.7042 9.75413C18.1931 9.04301 16.7778 8.5576 15.4583 8.29788C14.1389 8.03676 12.95 7.99302 11.8917 8.16663C10.8319 8.34024 10.0069 8.72218 9.41667 9.31246C8.82639 9.93746 8.44444 10.7791 8.27083 11.8375C8.09722 12.8972 8.14097 14.0951 8.40208 15.4312C8.66181 16.7687 9.14792 18.184 9.86042 19.677C10.5715 21.1701 11.5 22.6805 12.6458 24.2083ZM30.0417 6.81246C28.2014 5.70135 26.2569 4.97218 24.2083 4.62496C22.1597 4.27774 20.1111 4.31246 18.0625 4.72913C18.8264 4.97218 19.5903 5.24996 20.3542 5.56246C21.1181 5.87496 21.8819 6.23051 22.6458 6.62913C23.4097 7.02913 24.1653 7.48051 24.9125 7.98329C25.6583 8.48746 26.3958 9.03468 27.125 9.62496L30.0417 6.81246Z" fill="black"/>
</svg>
